<?xml version="1.0" encoding="iso-8859-1"?>
<!-- Generator: Adobe Illustrator 18.1.1, SVG Export Plug-In . SVG Version: 6.00 Build 0)  -->
<svg version="1.1" id="Capa_1" xmlns="http://www.w3.org/2000/svg" xmlns:xlink="http://www.w3.org/1999/xlink" x="0px" y="0px"
	 viewBox="0 0 17.608 17.608" style="enable-background:new 0 0 17.608 17.608;" xml:space="preserve">
<g>
	<g>
		<path style="fill:#030104;" d="M14.071,4.498h-0.18C13.243,1.902,11.209,0,8.804,0S4.365,1.902,3.719,4.498H3.54
			c-0.475,0-0.86,0.385-0.86,0.86v11.389c0,0.477,0.385,0.861,0.86,0.861h10.53c0.475,0,0.859-0.385,0.859-0.861V5.358
			C14.929,4.884,14.544,4.498,14.071,4.498z M8.804,0.859c1.942,0,3.593,1.525,4.196,3.64H4.608
			C5.211,2.384,6.862,0.859,8.804,0.859z M8.804,15.507c-2.018,0-3.653-1.635-3.653-3.652s1.635-3.654,3.653-3.654
			c2.019,0,3.653,1.636,3.653,3.654S10.823,15.507,8.804,15.507z"/>
		<polygon style="fill:#030104;" points="9.401,9.689 8.207,9.689 8.207,11.265 6.697,11.265 6.697,12.429 8.207,12.429 
			8.207,14.021 9.401,14.021 9.401,12.429 10.912,12.429 10.912,11.265 9.401,11.265 		"/>
	</g>
</g>
<g>
</g>
<g>
</g>
<g>
</g>
<g>
</g>
<g>
</g>
<g>
</g>
<g>
</g>
<g>
</g>
<g>
</g>
<g>
</g>
<g>
</g>
<g>
</g>
<g>
</g>
<g>
</g>
<g>
</g>
</svg>
