<?xml version="1.0" encoding="iso-8859-1"?>
<!-- Generator: Adobe Illustrator 17.1.0, SVG Export Plug-In . SVG Version: 6.00 Build 0)  -->
<!DOCTYPE svg PUBLIC "-//W3C//DTD SVG 1.1//EN" "http://www.w3.org/Graphics/SVG/1.1/DTD/svg11.dtd">
<svg version="1.1" id="Capa_1" xmlns="http://www.w3.org/2000/svg" xmlns:xlink="http://www.w3.org/1999/xlink" x="0px" y="0px"
	 viewBox="0 0 476.855 476.855" style="enable-background:new 0 0 476.855 476.855;" xml:space="preserve">
<g>
	<path d="M354.848,149.654c27.87,0,50.544-22.675,50.544-50.547c0-27.871-22.674-50.545-50.544-50.545
		c-27.863,0-50.531,22.674-50.531,50.545C304.316,126.979,326.984,149.654,354.848,149.654z"/>
	<path d="M472.567,249.529l-25.947-34.607c-3.96-5.282-10.53-13.763-14.646-18.902c0,0-19.195-23.98-25.593-31.973
		c-4.081-5.099-10.167-8.026-16.703-8.037c-0.007,0-0.011-0.001-0.014-0.001c-14.64,0-58.557,0-58.557,0l-43.216-22.883
		c-0.96-0.564-3.295-3.307-3.729-4.37l-15.02-45.597c-2.902-8.809-11.08-14.726-20.35-14.726c-2.273,0-4.528,0.363-6.704,1.08
		c-5.436,1.791-9.849,5.591-12.427,10.701c-2.577,5.11-3.011,10.918-1.22,16.354l15.041,45.656
		c3.73,11.321,13.691,23.124,24.223,28.7l47.555,25.183l7.361,82.235l-5.728,64.269c-0.648,7.292-0.94,18.729-0.664,26.037
		l2.361,62.494c0.005,0.145,0.029,0.285,0.037,0.431H25.395V32.586c0-7.013-5.685-12.697-12.697-12.697S0,25.573,0,32.586v403.538
		c0,11.493,9.35,20.843,20.843,20.843h422.553c7.013,0,12.697-5.685,12.697-12.697c0-6.119-4.33-11.226-10.092-12.428
		c0.139-2.054,0.011-4.138-0.425-6.207l-31.207-148.209c-0.07-0.333-0.317-2.333-0.403-2.659l-3.246-36.279
		c0.574,0.756,1.117,1.477,1.615,2.14l25.947,34.607c4.085,5.45,10.338,8.575,17.156,8.575c4.662,0,9.102-1.481,12.839-4.285
		c4.579-3.433,7.547-8.443,8.357-14.108C477.445,259.75,476.001,254.108,472.567,249.529z M361.372,366.942
		c-0.203-5.43,0.039-14.928,0.52-20.324l4.195-47.082h6.772l27.802,132.036h-36.95c0.039-0.708,0.051-1.42,0.023-2.138
		L361.372,366.942z"/>
	<path d="M34.964,316.592c1.871,0.973,3.873,1.434,5.846,1.434c4.587,0,9.016-2.493,11.277-6.844l24.781-47.674l26.498,32.409
		c4.152,5.077,10.186,7.625,16.157,6.805c5.965-0.818,11.097-4.895,13.729-10.903l92.335-210.865
		c2.813-6.424-0.114-13.911-6.538-16.725c-6.428-2.813-13.912,0.116-16.726,6.538l-87.277,199.315L89.48,238.814
		c-4.104-5.02-9.883-7.542-15.88-6.924c-5.989,0.618-11.139,4.272-14.13,10.025l-29.917,57.554
		C26.319,305.692,28.741,313.358,34.964,316.592z"/>
</g>
<g>
</g>
<g>
</g>
<g>
</g>
<g>
</g>
<g>
</g>
<g>
</g>
<g>
</g>
<g>
</g>
<g>
</g>
<g>
</g>
<g>
</g>
<g>
</g>
<g>
</g>
<g>
</g>
<g>
</g>
</svg>
