<?xml version="1.0" encoding="iso-8859-1"?>
<!-- Generator: Adobe Illustrator 18.1.1, SVG Export Plug-In . SVG Version: 6.00 Build 0)  -->
<svg version="1.1" id="Capa_1" xmlns="http://www.w3.org/2000/svg" xmlns:xlink="http://www.w3.org/1999/xlink" x="0px" y="0px"
	 viewBox="0 0 611.999 611.999" style="enable-background:new 0 0 611.999 611.999;" xml:space="preserve">
<g>
	<g>
		<circle cx="258.123" cy="182.843" r="13.093"/>
		<circle cx="331.226" cy="182.843" r="13.093"/>
		<rect x="226.96" y="414.319" width="41.57" height="11.085"/>
		<rect x="319.801" y="414.319" width="42.956" height="11.085"/>
		<path d="M481.943,418.127c6.594-13.118,4.433-29.548-6.503-40.484c0,0-114.743-115.415-116.212-116.715
			c15.996-16.175,25.962-38.309,26.254-62.733c11.784-2.795,20.397-13.303,20.397-25.9c0-12.6-8.616-23.109-20.404-25.901
			c-0.137-8.352-1.394-16.542-3.757-24.453h22.609v-11.085h-18.82V98.818c0-48.222-37.775-87.769-85.286-90.648V0h-11.085v8.169
			c-47.515,2.874-85.296,42.424-85.296,90.648v12.037h-18.45v11.085h22.235c-2.363,7.911-3.619,16.103-3.757,24.455
			c-11.78,2.794-20.39,13.301-20.39,25.901c0,12.597,8.606,23.102,20.383,25.898c0.291,24.428,10.262,46.566,26.266,62.742
			c-4.882,4.325-115.596,116.703-115.596,116.703c-6.618,6.61-10.262,15.398-10.262,24.748c0,9.349,3.644,18.139,10.257,24.743
			c6.61,6.617,15.399,10.262,24.75,10.262c9.349-0.001,18.139-3.646,24.745-10.261l33.299-33.301v74.694h28.129v143.473h138.457
			V468.527h28.115v-75.316l27.746,27.744c-2.534,1.273-4.885,2.927-6.93,4.965c-5.067,5.067-7.858,11.805-7.858,18.967
			c0,11.085,6.758,20.62,16.37,24.704v79.591h13.639v33.824h16.454v28.079h11.085v-28.081h15.188V549.18h13.639v-79.584
			c3.14-1.33,6.029-3.259,8.515-5.744c5.067-5.069,7.858-11.806,7.858-18.967C507.727,430.455,496.251,418.681,481.943,418.127z
			 M385.51,158.059c5.496,2.4,9.284,7.857,9.284,14.236c0,6.381-3.788,11.837-9.284,14.236V158.059z M203.833,186.531
			c-5.487-2.401-9.27-7.855-9.27-14.235c0-6.378,3.783-11.834,9.27-14.235V186.531z M467.6,385.481
			c9.323,9.324,9.323,24.492-0.001,33.816c-4.516,4.523-10.52,7.013-16.905,7.012c-6.387,0-12.389-2.49-16.907-7.013l-11.939-11.939
			l34.479-33.151L467.6,385.481z M300.221,19.285c41.393,2.861,74.2,37.427,74.2,79.534v12.036h-74.2v-1.959
			c12.438-2.572,21.818-13.609,21.818-26.798s-9.38-24.226-21.818-26.798L300.221,19.285L300.221,19.285z M317.69,121.94
			c-1.873,11.561-11.467,19.215-23.016,19.215c-11.55,0-21.144-7.655-23.016-19.215H317.69z M294.674,65.818
			c8.976,0,16.28,7.304,16.28,16.279s-7.304,16.279-16.28,16.279s-16.28-7.304-16.28-16.279S285.698,65.818,294.674,65.818z
			 M214.925,98.818c0-42.109,32.813-76.678,74.21-79.534v36.014c-12.443,2.568-21.827,13.609-21.827,26.8s9.384,24.233,21.827,26.8
			v1.955h-74.21L214.925,98.818L214.925,98.818z M214.918,197.099v-49.178c0-8.927,1.466-17.649,4.341-25.982h41.207
			c2.026,17.35,16.589,30.301,34.207,30.301s32.181-12.951,34.207-30.301h41.203c2.874,8.332,4.341,17.055,4.341,25.982v49.178
			c0,43.972-35.774,79.746-79.746,79.746C250.7,276.845,214.918,241.073,214.918,197.099z M247.745,288.423l39.837,61.408
			l-39.837-18.582L247.745,288.423L247.745,288.423z M156.179,419.299c-4.516,4.52-10.519,7.01-16.905,7.012
			c-6.385,0-12.389-2.49-16.911-7.016c-4.521-4.516-7.01-10.519-7.01-16.904c0-6.387,2.489-12.389,7.013-16.908l12.618-12.619
			l34.48,33.152L156.179,419.299z M177.306,398.173l-34.48-33.152l8.525-8.526l34.481,33.152L177.306,398.173z M197.32,333.797
			v44.36l-3.648,3.648l-34.481-33.152l41.935-41.94C198.61,315.42,197.32,324.509,197.32,333.797z M237.195,600.915
			c2.647-12.047,13.125-20.286,25.637-20.286s22.99,8.239,25.637,20.286H237.195z M289.136,580.329
			c-6.759-6.68-16.056-10.786-26.304-10.786c-10.244,0-19.537,4.103-26.296,10.778V468.527h52.6L289.136,580.329L289.136,580.329z
			 M289.316,457.441h-80.91V333.797c0-18.739,5.915-36.568,17.109-51.558c2.582-3.461,5.43-6.721,8.509-9.759
			c0.685-0.675,2.637-2.559,2.637-2.559v4.62v63.77l52.656,24.561v94.57H289.316z M254.567,278.57
			c12.105,5.983,25.72,9.362,40.111,9.362c14.389,0,27.998-3.377,40.1-9.359l-40.106,61.821L254.567,278.57z M341.972,287.853
			v43.395l-40.366,18.829L341.972,287.853z M300.879,600.915c2.647-12.047,13.125-20.286,25.636-20.286
			c12.51,0,22.99,8.239,25.637,20.286H300.879z M352.821,580.33c-6.761-6.68-16.057-10.788-26.306-10.788
			c-10.244,0-19.535,4.102-26.295,10.776V468.527h52.6V580.33z M380.937,457.441h-80.536v-94.57l52.656-24.561v-68.015l8.834,9.445
			c12.46,15.471,19.046,34.163,19.046,54.057V457.441z M392.022,377.534v-43.738c0-9.538-1.419-18.989-4.143-28.036l44.238,44.238
			l-34.479,33.151L392.022,377.534z M414.005,399.515l-8.526-8.526l34.48-33.151l8.526,8.526L414.005,399.515z M466.63,571.919
			h-20.557V549.18h20.557V571.919z M480.27,538.095h-2.554v-1.091h-42.727v1.091h-2.554v-65.292h47.835L480.27,538.095
			L480.27,538.095z M492.03,456.017c-2.974,2.974-6.927,4.612-11.13,4.612h-49.095c-8.68,0-15.741-7.063-15.741-15.741
			c0-4.201,1.638-8.155,4.605-11.12c2.18-2.173,4.934-3.632,7.905-4.253c6.229,5.105,13.959,7.88,22.117,7.88l0,0
			c8.343,0,16.235-2.909,22.534-8.234h7.674c8.68,0,15.741,7.056,15.741,15.727C496.641,449.09,495.003,453.042,492.03,456.017z"/>
	</g>
</g>
<g>
</g>
<g>
</g>
<g>
</g>
<g>
</g>
<g>
</g>
<g>
</g>
<g>
</g>
<g>
</g>
<g>
</g>
<g>
</g>
<g>
</g>
<g>
</g>
<g>
</g>
<g>
</g>
<g>
</g>
</svg>
